# xmcd
#
# Track frame offsets: 
#        150
#        16063
#        42363
#        62469
#        81473
#        102718
#        126149
#        144260
#        171538
#        191333
#        237706
#
# Disc length: 3407 seconds
#
# Revision: 0
# Processed by: cddbd v1.5.1PL0 Copyright (c) Steve Scherf et al.
# Submitted via: ExactAudioCopy v0.95a4
#
DISCID=990d4d0b
DTITLE=Van Morrison - If You Meet Me By The Lamplight I'll Be Around, 
DTITLE=disc 1
DYEAR=1999
DGENRE=Celtic
TTITLE0=Inarticulate Speech of the Heart (instrumental)
TTITLE1=Moondance
TTITLE2=Satisfied
TTITLE3=Back On Top
TTITLE4=Goin' Down Geneva
TTITLE5=In The Midnight
TTITLE6=Cleaning Windows
TTITLE7=Vanlose Stairway > Trans-Euro Train
TTITLE8=Centerpiece 
TTITLE9=In The Afternoon > Joe Turner Sings > Don't You Make Me High >
TTITLE9=Get On Up, I Feel Like Being A Sex Machine
TTITLE10=Precious Time
EXTD=
EXTT0=
EXTT1=
EXTT2=
EXTT3=
EXTT4=
EXTT5=
EXTT6=
EXTT7=
EXTT8=
EXTT9=
EXTT10=
PLAYORDER=
